# xmcd CD database file
#
# Track frame offsets:
#	150
#	22627
#	47707
#	67777
#	93757
#	123406
#	157125
#
# Disc length: 2528 seconds
#
# Revision: 0
# Processed by: cddbd v1.5.2PL0 Copyright (c) Steve Scherf et al.
# Submitted via: CDex 1.70beta2
#
DISCID=4909de07
DTITLE=Cem Nasuhoglu - Yolculuk
DYEAR=2006
DGENRE=Jazz
TTITLE0=Istanbul'da Bir Gun
TTITLE1=Lale Plak
TTITLE2=Karadeniz
TTITLE3=Yolculuk
TTITLE4='74 Funky
TTITLE5=Ruya
TTITLE6=Veda
EXTD=YEAR: 2006
EXTT0=
EXTT1=
EXTT2=
EXTT3=
EXTT4=
EXTT5=
EXTT6=
PLAYORDER=
